<svg xmlns="http://www.w3.org/2000/svg" width="84.81" height="107.44" viewBox="0 0 84.81 107.44"><defs><style>.bc47f9c7-fa4b-4771-a904-0eb7e96e5398{fill:none;}.b7aaae26-fd73-478e-b795-f01c78086af1{fill:#ffb8b0;}.ed51d71d-9826-4fce-bd52-11cdb6104ad2{fill:#f59b9e;}.b4185b62-c52f-4794-b068-a9a2d8288dd0{fill:#ffe0b0;}.aed6abfa-59b6-4bca-a7ae-d988cdae13bd{fill:#0b2149;}.f7a4ac8d-a0af-4e3b-9429-f9b0b6dcccc8{fill:#8488d5;}.a26479d1-3890-4c4a-8d13-ea166a5a8bb4{fill:#b8dce7;}.fd34a98d-55f7-406e-8341-2683815733f0{fill:#64a4af;}.b6898491-5add-4880-9aba-fbd747c1099c{fill:#8bd4c2;}.f857fa97-6621-4757-9a49-8fc86052737e{fill:#cec2ee;}.a4af95b0-a55a-40d3-a417-4eaf16329e24{fill:#98ade9;}</style></defs><g id="aaef49bd-b2b4-41b3-a811-e625844713ac" data-name="Layer 2"><g id="a34dd6e0-d67c-43d4-a967-494d6147b326" data-name="Layer 1"><polygon points="28.35 91.16 23.35 82.73 28.35 74.92 56.47 58.59 56.47 74.83 28.35 91.16" class="b7aaae26-fd73-478e-b795-f01c78086af1"/><polygon points="21.32 70.86 21.32 87.11 28.35 91.16 28.35 74.91 21.32 70.86" class="ed51d71d-9826-4fce-bd52-11cdb6104ad2"/><polygon points="49.17 54.42 56.47 58.59 28.35 74.91 21.32 70.86 49.17 54.42" class="b4185b62-c52f-4794-b068-a9a2d8288dd0"/><polygon points="7.02 78.85 2.02 70.42 7.02 62.6 35.14 46.27 35.14 62.52 7.02 78.85" class="aed6abfa-59b6-4bca-a7ae-d988cdae13bd"/><polygon points="0 74.8 7.03 78.84 7.03 62.6 0 58.55 0 74.8" class="f7a4ac8d-a0af-4e3b-9429-f9b0b6dcccc8"/><polygon points="0 58.55 7.03 62.6 35.14 46.27 27.85 42.1 0 58.55" class="b4185b62-c52f-4794-b068-a9a2d8288dd0"/><polygon points="0 50.6 28.46 72 56.47 50.62 28.25 33.97 0 50.6" class="a26479d1-3890-4c4a-8d13-ea166a5a8bb4"/><polygon points="0 58.57 28.35 74.91 28.35 66.94 0 50.6 0 58.57" class="fd34a98d-55f7-406e-8341-2683815733f0"/><polygon points="56.47 58.59 56.47 50.61 28.35 66.94 28.35 74.91 56.47 58.59" class="b6898491-5add-4880-9aba-fbd747c1099c"/><polygon points="0 34.38 28.35 55.7 56.47 34.37 28.14 17.62 0 34.38" class="f857fa97-6621-4757-9a49-8fc86052737e"/><polygon points="28.35 66.94 23.35 58.42 28.35 50.7 56.47 34.37 56.47 50.62 28.35 66.94" class="aed6abfa-59b6-4bca-a7ae-d988cdae13bd"/><polygon points="7.01 54.66 19.46 47.45 5.42 48.89 7.01 54.66" class="aed6abfa-59b6-4bca-a7ae-d988cdae13bd"/><g class="b5de432d-a789-4118-b73a-9abf6e120aaa"><path d="M0 34.37v16.25l7 4s0-3.47 2.17-4.51 4.59-.09 6.93 1.92a16.35 16.35 0 015.2 10.86l7.05 4V50.7z" class="f7a4ac8d-a0af-4e3b-9429-f9b0b6dcccc8"/><g class="parallax-y-up"><polygon points="14.14 16.6 41.99 0 56.47 25.02 28.35 41.35 15.29 28.44 14.14 16.6" class="b4185b62-c52f-4794-b068-a9a2d8288dd0"/><polygon points="0 25.02 14.14 16.6 28.35 41.35 0 25.02" class="ed51d71d-9826-4fce-bd52-11cdb6104ad2"/></g><polygon points="84.81 74.87 56.7 96.19 28.35 74.87 56.48 58.12 84.81 74.87" class="f857fa97-6621-4757-9a49-8fc86052737e"/><polygon points="56.7 107.44 51.7 98.92 56.7 91.19 84.81 74.87 84.81 91.11 56.7 107.44" class="a4af95b0-a55a-40d3-a417-4eaf16329e24"/><polygon points="35.35 95.15 47.81 87.95 33.76 89.39 35.35 95.15" class="aed6abfa-59b6-4bca-a7ae-d988cdae13bd"/><path d="M28.35 74.87v16.25l7 4s0-3.47 2.17-4.52 4.59-.09 6.92 1.92a16.36 16.36 0 015.2 10.83l7.05 4.06V91.19z" class="f7a4ac8d-a0af-4e3b-9429-f9b0b6dcccc8"/><polygon points="84.81 58.64 56.7 79.96 28.35 58.64 56.48 41.89 84.81 58.64" class="b4185b62-c52f-4794-b068-a9a2d8288dd0"/><polygon points="56.7 91.21 51.7 82.69 56.7 74.96 84.81 58.64 84.81 74.88 56.7 91.21" class="b7aaae26-fd73-478e-b795-f01c78086af1"/><polygon points="35.35 78.92 47.81 71.72 33.76 73.16 35.35 78.92" class="aed6abfa-59b6-4bca-a7ae-d988cdae13bd"/><path d="M28.35 58.64v16.25l7 4s0-3.47 2.17-4.52 4.59-.09 6.92 1.92a16.36 16.36 0 015.2 10.83l7.05 4.06V75z" class="ed51d71d-9826-4fce-bd52-11cdb6104ad2"/><g class="parallax-y-up"><polygon points="42.49 42.27 70.34 25.67 84.81 50.69 56.7 67.02 43.63 54.11 42.49 42.27" class="a26479d1-3890-4c4a-8d13-ea166a5a8bb4"/><polygon points="28.35 50.69 42.49 42.27 56.7 67.02 28.35 50.69" class="fd34a98d-55f7-406e-8341-2683815733f0"/></g></g></g></g></svg>