<?xml version="1.0" encoding="UTF-8"?> <svg xmlns="http://www.w3.org/2000/svg" xmlns:xlink="http://www.w3.org/1999/xlink" width="60" height="160" viewBox="0 0 60 160"><defs><style>.f2830d76-2c4f-4e49-b3ae-27b4257f3d43{fill:none;}.ba1e31f8-a956-44d8-99d3-5157e881126f{clip-path:url(#be68f291-12c8-4201-ae20-295505edccda);}.ade47bf3-9802-4952-997d-f05a9057a61b{fill:#8488d5;}.ad3ba797-2ebb-41ae-bdc3-ab3d8594a097{fill:#b8dce7;}.e736f200-0faa-4e83-8284-950b4135f4c2{fill:#ffe0b0;}.fe674688-c410-4aa4-9598-9407b107b934{fill:#8bd4c2;}.a425fc16-6ecf-44b5-9216-bf9dbb562586{fill:#ffb8b0;}.f043fab5-0d82-4470-9883-a1e90aa9b38c{fill:#f59b9e;}.a2aac222-e4b2-441e-aaa7-58f5f3b59fd4{clip-path:url(#a96b38d0-cb1b-48d4-a07d-955ebe6a45e9);}.ed568728-b093-4fc9-a96d-7700647b2aff{fill:#64a4af;}.ad5e6fb9-0254-4d38-a873-5f3f40b175ab{fill:#cec2ee;}</style><clipPath id="be68f291-12c8-4201-ae20-295505edccda"><rect class="f2830d76-2c4f-4e49-b3ae-27b4257f3d43" width="60" height="80"></rect></clipPath><clipPath id="a96b38d0-cb1b-48d4-a07d-955ebe6a45e9"><rect class="f2830d76-2c4f-4e49-b3ae-27b4257f3d43" y="80" width="60" height="80"></rect></clipPath></defs><title>graphicAsset 1</title><g id="f96f245d-2627-4a0e-b9b9-e892544c51dd" data-name="Layer 2"><g id="e4e0e020-1511-4224-ab77-d6cadbf32515" data-name="Layer 1"><g class="ba1e31f8-a956-44d8-99d3-5157e881126f"><path class="ade47bf3-9802-4952-997d-f05a9057a61b" d="M0,60V80H10a10,10,0,0,1,20,0H40V60Z"></path><path class="ad3ba797-2ebb-41ae-bdc3-ab3d8594a097" d="M0,20V40H10a10,10,0,0,1,20,0H40V20Z"></path><rect class="e736f200-0faa-4e83-8284-950b4135f4c2" y="40" width="10" height="20"></rect><rect class="fe674688-c410-4aa4-9598-9407b107b934" x="30" y="40" width="10" height="20"></rect><rect class="a425fc16-6ecf-44b5-9216-bf9dbb562586" x="40" y="60" width="20" height="20"></rect><polygon class="ade47bf3-9802-4952-997d-f05a9057a61b" points="60 60 40 40 40 60 60 60"></polygon><polygon class="f043fab5-0d82-4470-9883-a1e90aa9b38c" points="20 20 0 0 0 20 20 20"></polygon></g><g class="a2aac222-e4b2-441e-aaa7-58f5f3b59fd4"><path class="ad3ba797-2ebb-41ae-bdc3-ab3d8594a097" d="M0,100V80H10a10,10,0,0,0,20,0H40v20Z"></path><path class="f043fab5-0d82-4470-9883-a1e90aa9b38c" d="M0,140V120H10a10,10,0,0,0,20,0H40v20Z"></path><rect class="e736f200-0faa-4e83-8284-950b4135f4c2" y="100" width="10" height="20"></rect><rect class="ade47bf3-9802-4952-997d-f05a9057a61b" x="30" y="100" width="10" height="20"></rect><rect class="e736f200-0faa-4e83-8284-950b4135f4c2" x="40" y="80" width="20" height="20"></rect><polygon class="ed568728-b093-4fc9-a96d-7700647b2aff" points="60 100 40 120 40 100 60 100"></polygon><polygon class="ad5e6fb9-0254-4d38-a873-5f3f40b175ab" points="20 140 0 160 0 140 20 140"></polygon></g></g></g></svg> 