<?xml version="1.0" encoding="UTF-8"?> <svg xmlns="http://www.w3.org/2000/svg" xmlns:xlink="http://www.w3.org/1999/xlink" width="160" height="80" viewBox="0 0 160 80"><defs><style>.bb81a684-999c-43fb-bebc-9ff13caee6c9{fill:none;}.fd5139b6-2fc8-482e-a1f4-291bc28573c8{fill:#f7efee;}.e3aec582-e5b1-411f-b1c1-3e450c0bbfca{fill:#0b2149;}.e960c520-bee9-4b50-9330-afad7bb4ccbf{clip-path:url(#b72757d1-59f2-4380-b4fa-c1085bb3cf8c);}.a093133b-170d-4d41-b315-9538d08aa31f{fill:#ffe0b0;}.b0cb9fb2-88b8-4db2-a548-5b096f2a6636{fill:#8488d5;}.bc9b48fd-57d9-4465-bd81-4ff3b825c659{fill:#cec2ee;}.a7d5fff4-2006-4009-bc36-72d8bbce45f6{fill:#b8dce7;}.f1b560e4-6e0a-4653-ae2d-8cc4c1d5140f{fill:#64a4af;}.e03df936-a784-4606-b6f1-9a18402bb325{fill:#ffb8b0;}.b0b22f75-819f-4035-9ecc-46a4cc0e68e9{clip-path:url(#a76c9bcd-01eb-4a26-97b5-776cfad3a777);}.a1ae4337-bdb1-4985-8d96-447e284515c8{fill:#f59b9e;}.e08b9dc3-77d7-4100-94d2-b3457a959ebe{fill:#8bd4c2;}</style><clipPath id="b72757d1-59f2-4380-b4fa-c1085bb3cf8c"><rect class="bb81a684-999c-43fb-bebc-9ff13caee6c9" width="60" height="80"></rect></clipPath><clipPath id="a76c9bcd-01eb-4a26-97b5-776cfad3a777"><rect class="bb81a684-999c-43fb-bebc-9ff13caee6c9" x="60" width="100" height="80"></rect></clipPath></defs><title>buildingAsset 3</title><g id="ff40a0cc-b4e9-44f3-a348-f47774909439" data-name="Layer 2"><g id="e079e0b3-de71-4127-b542-84b9612ff6a9" data-name="Layer 1"><rect class="fd5139b6-2fc8-482e-a1f4-291bc28573c8" x="60" width="100" height="80"></rect><rect class="e3aec582-e5b1-411f-b1c1-3e450c0bbfca" x="29" y="69" width="22" height="11"></rect><rect class="e3aec582-e5b1-411f-b1c1-3e450c0bbfca" x="29" y="29" width="22" height="32"></rect><g class="e960c520-bee9-4b50-9330-afad7bb4ccbf"><path class="a093133b-170d-4d41-b315-9538d08aa31f" d="M20,60V80H30a10,10,0,0,1,20,0H60V60Z"></path><path class="b0cb9fb2-88b8-4db2-a548-5b096f2a6636" d="M20,20V40H30a10,10,0,0,1,20,0H60V20Z"></path><rect class="bc9b48fd-57d9-4465-bd81-4ff3b825c659" x="20" y="40" width="10" height="20"></rect><rect class="a7d5fff4-2006-4009-bc36-72d8bbce45f6" x="50" y="40" width="10" height="20"></rect><rect class="f1b560e4-6e0a-4653-ae2d-8cc4c1d5140f" y="60" width="20" height="20"></rect><polygon class="a7d5fff4-2006-4009-bc36-72d8bbce45f6" points="40 20 60 0 60 20 40 20"></polygon><polygon class="e03df936-a784-4606-b6f1-9a18402bb325" points="0 60 20 40 20 60 0 60"></polygon></g><g class="b0b22f75-819f-4035-9ecc-46a4cc0e68e9"><path class="a1ae4337-bdb1-4985-8d96-447e284515c8" d="M60,40V60H70a10,10,0,0,1,20,0h10V40Z"></path><path class="f1b560e4-6e0a-4653-ae2d-8cc4c1d5140f" d="M60,0V20H70a10,10,0,0,1,20,0h10V0Z"></path><path class="a093133b-170d-4d41-b315-9538d08aa31f" d="M100,40V20H90a10,10,0,0,1-20,0H60V40Z"></path><rect class="b0cb9fb2-88b8-4db2-a548-5b096f2a6636" x="60" y="60" width="10" height="20"></rect><rect class="a093133b-170d-4d41-b315-9538d08aa31f" x="90" y="60" width="10" height="20"></rect><path class="b0cb9fb2-88b8-4db2-a548-5b096f2a6636" d="M100,60V80h10a10,10,0,0,1,20,0h10V60Z"></path><path class="a7d5fff4-2006-4009-bc36-72d8bbce45f6" d="M100,20V40h10a10,10,0,0,1,20,0h10V20Z"></path><rect class="a093133b-170d-4d41-b315-9538d08aa31f" x="100" y="40" width="10" height="20"></rect><rect class="e08b9dc3-77d7-4100-94d2-b3457a959ebe" x="130" y="40" width="10" height="20"></rect><rect class="e03df936-a784-4606-b6f1-9a18402bb325" x="140" y="60" width="20" height="20"></rect><polygon class="b0cb9fb2-88b8-4db2-a548-5b096f2a6636" points="160 60 140 40 140 60 160 60"></polygon><polygon class="a1ae4337-bdb1-4985-8d96-447e284515c8" points="120 20 100 0 100 20 120 20"></polygon></g></g></g></svg> 